<svg xmlns="http://www.w3.org/2000/svg" viewBox="0 0 1440 320"><path fill="#7979ff" fill-opacity="1" d="M0,160L34.3,138.7C68.6,117,137,75,206,74.7C274.3,75,343,117,411,144C480,171,549,181,617,165.3C685.7,149,754,107,823,106.7C891.4,107,960,149,1029,149.3C1097.1,149,1166,107,1234,96C1302.9,85,1371,107,1406,117.3L1440,128L1440,320L1405.7,320C1371.4,320,1303,320,1234,320C1165.7,320,1097,320,1029,320C960,320,891,320,823,320C754.3,320,686,320,617,320C548.6,320,480,320,411,320C342.9,320,274,320,206,320C137.1,320,69,320,34,320L0,320Z"></path></svg>